<!-- Generated by IcoMoon.io -->
<svg version="1.1" xmlns="http://www.w3.org/2000/svg" width="32" height="32" viewBox="0 0 32 32">
<title>Equipment</title>
<path d="M11.392 3.968c-0.512 0.448-1.344 2.88-1.792 5.44-1.024 5.568-0.512 6.592 3.264 6.592 1.792 0 2.496 0.256 2.496 0.96 0 0.64-0.704 0.96-2.24 0.96-2.56 0-4.992 1.984-4.416 3.52 0.256 0.704 1.28 0.96 3.52 0.96 2.88 0 3.136 0.128 3.136 1.536s-0.32 1.6-2.688 1.792c-2.368 0.192-2.752 0.384-2.944 1.792-0.128 1.472-0.064 1.536 0.704 0.448 1.28-1.6 9.856-1.6 11.136 0 0.768 1.088 0.832 1.024 0.704-0.448-0.192-1.408-0.576-1.6-2.88-1.792-2.432-0.192-2.752-0.384-2.752-1.792s0.256-1.536 3.136-1.536c2.24 0 3.264-0.256 3.52-0.96 0.576-1.536-1.856-3.52-4.416-3.52-1.536 0-2.24-0.32-2.24-0.96 0-0.704 0.704-0.96 2.496-0.96 3.776 0 4.288-1.024 3.264-6.592-0.448-2.56-1.088-4.992-1.408-5.44-0.384-0.448-2.24-0.768-4.608-0.768-2.24 0-4.416 0.384-4.992 0.768zM20.736 5.952c0.192 0.832 0.512 3.136 0.768 5.12l0.448 3.648h-11.904l0.448-3.648c0.832-6.848 0.576-6.592 5.504-6.592 3.968 0 4.352 0.128 4.736 1.472zM22.272 20.288c0.192 0.64-1.344 0.832-6.208 0.832-5.952 0-7.232-0.32-6.016-1.536 0.832-0.768 11.904-0.128 12.224 0.704z"></path>
</svg>
