<!-- Generated by IcoMoon.io -->
<svg version="1.1" xmlns="http://www.w3.org/2000/svg" width="32" height="32" viewBox="0 0 32 32">
<title>Openings</title>
<path d="M3.556 4.148c0 0.948 0.296 1.778 0.593 1.778 0.356 0 0.593 3.852 0.593 10.37 0 9.956-0.059 10.37-1.185 10.37-0.889 0-1.185 0.415-1.185 1.481v1.481h27.259v-1.481c0-1.067-0.296-1.481-1.185-1.481-1.126 0-1.185-0.415-1.185-10.37 0-6.519 0.237-10.37 0.593-10.37s0.593-0.83 0.593-1.778v-1.778h-24.889v1.778zM27.733 3.97c-0.178 0.948-1.244 1.067-11.378 1.244-6.459 0.059-11.496-0.119-11.793-0.415-1.481-1.481 0.593-1.837 11.793-1.837 10.726 0 11.556 0.059 11.378 1.007zM16 26.074h9.481l0.178-9.956 0.178-9.896 0.119 10.193 0.119 10.252h-20.148l0.119-10.252 0.119-10.193 0.178 9.896 0.178 9.956h9.481zM15.407 11.556v3.852h-8.296v-7.704h8.296v3.852zM24.889 11.556v3.852h-8.296v-7.704h8.296v3.852zM15.407 21.037v4.444h-8.296v-8.889h8.296v4.444zM24.889 21.037v4.444h-8.296v-8.889h8.296v4.444zM29.037 28.444c0 0.356-4.741 0.593-13.037 0.593s-13.037-0.237-13.037-0.593c0-0.356 4.741-0.593 13.037-0.593s13.037 0.237 13.037 0.593z"></path>
<path d="M9.185 9.541c-0.237 0.356-0.296 0.77-0.119 0.948 0.415 0.415 1.6-0.356 1.6-1.067s-1.007-0.711-1.481 0.119z"></path>
<path d="M10.074 10.963c-1.126 1.126-1.719 2.074-1.363 2.074 0.652 0 4.326-3.319 4.326-3.911 0-0.711-1.185 0-2.963 1.837z"></path>
</svg>
